mtllib croix.mtl
o Croix_croix_mesh
v -0.009275 0.009864 0.001457
v -0.011152 0.354433 0.003836
v -0.113763 0.359750 0.002985
v -0.117975 0.362656 0.001545
v -0.113971 0.365562 0.002937
v -0.010296 0.372733 0.003781
v -0.007209 0.468917 0.001745
v -0.009275 0.009864 -0.001457
v -0.011152 0.354433 -0.003836
v -0.113763 0.359750 -0.002985
v -0.117975 0.362656 -0.001545
v -0.113971 0.365562 -0.002938
v -0.010296 0.372733 -0.003781
v -0.007209 0.468917 -0.001745
v 0.009275 0.009864 0.001457
v 0.011152 0.354433 0.003836
v 0.113763 0.359750 0.002985
v 0.117975 0.362656 0.001545
v 0.113971 0.365562 0.002937
v 0.010296 0.372733 0.003781
v 0.007209 0.468917 0.001745
v 0.000000 0.479781 0.001151
v 0.000000 0.000060 0.000508
v 0.009275 0.009864 -0.001457
v 0.011152 0.354433 -0.003836
v 0.113763 0.359750 -0.002985
v 0.117975 0.362656 -0.001545
v 0.113971 0.365562 -0.002938
v 0.010296 0.372733 -0.003781
v 0.007209 0.468917 -0.001745
v 0.000000 0.479781 -0.001151
v 0.000000 0.000060 -0.000508
vt 0.000000 0.000000
vt 0.000000 0.000000
vt 0.000000 0.000000
vt 0.000000 0.000000
vt 0.000000 0.000000
vt 0.000000 0.000000
vt 0.000000 0.000000
vt 0.000000 0.000000
vt 0.000000 0.000000
vt 0.000000 0.000000
vt 0.000000 0.000000
vt 0.000000 0.000000
vt 0.000000 0.000000
vt 0.000000 0.000000
vt 0.000000 0.000000
vt 0.000000 0.000000
vt 0.000000 0.000000
vt 0.000000 0.000000
vt 0.000000 0.000000
vt 0.000000 0.000000
vt 0.000000 0.000000
vt 0.000000 0.000000
vt 0.000000 0.000000
vt 0.000000 0.000000
vt 0.000000 0.000000
vt 0.000000 0.000000
vt 0.000000 0.000000
vt 0.000000 0.000000
vt 0.000000 0.000000
vt 0.000000 0.000000
vt 0.000000 0.000000
vt 0.000000 0.000000
vn 0.7106 0.3008 -0.6360
vn 0.0000 0.8475 -0.5307
vn 0.0000 0.8475 0.5307
vn 0.7106 0.3008 0.6360
vn 0.3225 -0.3194 -0.8910
vn 0.3225 -0.3194 0.8910
vn 0.7190 -0.2467 0.6498
vn 0.7190 -0.2467 -0.6498
vn 0.3139 -0.6807 -0.6619
vn 0.9142 0.0109 -0.4051
vn 0.9142 0.0109 0.4051
vn 0.3139 -0.6807 0.6619
vn 0.2968 0.6853 -0.6650
vn 0.3197 0.3025 -0.8979
vn 0.3197 0.3025 0.8979
vn 0.2968 0.6853 0.6650
vn 0.0000 -0.8456 -0.5338
vn 0.0000 -0.8456 0.5338
vn -0.7106 0.3008 -0.6360
vn -0.7106 0.3008 0.6360
vn -0.3225 -0.3194 -0.8910
vn -0.7190 -0.2467 -0.6498
vn -0.7190 -0.2467 0.6498
vn -0.3225 -0.3194 0.8910
vn -0.3139 -0.6807 -0.6619
vn -0.3139 -0.6807 0.6619
vn -0.9142 0.0109 0.4051
vn -0.9142 0.0109 -0.4051
vn -0.2968 0.6853 -0.6650
vn -0.2968 0.6853 0.6650
vn -0.3197 0.3025 0.8979
vn -0.3197 0.3025 -0.8979
usemtl None
s 1
f 1/1/1 23/2/2 32/3/3 8/4/4
f 6/5/5 13/6/6 14/7/7 7/8/8
f 5/9/9 4/10/10 11/11/11 12/12/12
f 3/13/13 2/14/14 9/15/15 10/16/16
f 22/17/17 7/8/8 14/7/7 31/18/18
f 6/5/5 5/9/9 12/12/12 13/6/6
f 4/10/10 3/13/13 10/16/16 11/11/11
f 2/14/14 1/1/1 8/4/4 9/15/15
f 4/10/10 5/9/9 3/13/13
f 11/11/11 10/16/16 12/12/12
f 10/16/16 9/15/15 13/6/6 12/12/12
f 3/13/13 5/9/9 6/5/5 2/14/14
f 15/19/19 24/20/20 32/3/3 23/2/2
f 20/21/21 21/22/22 30/23/23 29/24/24
f 19/25/25 28/26/26 27/27/27 18/28/28
f 17/29/29 26/30/30 25/31/31 16/32/32
f 22/17/17 31/18/18 30/23/23 21/22/22
f 20/21/21 29/24/24 28/26/26 19/25/25
f 18/28/28 27/27/27 26/30/30 17/29/29
f 16/32/32 25/31/31 24/20/20 15/19/19
f 18/28/28 17/29/29 19/25/25
f 27/27/27 28/26/26 26/30/30
f 26/30/30 28/26/26 29/24/24 25/31/31
f 17/29/29 16/32/32 20/21/21 19/25/25
f 23/2/2 1/1/1 15/19/19
f 32/3/3 24/20/20 8/4/4
f 8/4/4 24/20/20 25/31/31 9/15/15
f 13/6/6 9/15/15 25/31/31 29/24/24
f 14/7/7 30/23/23 31/18/18
f 14/7/7 13/6/6 29/24/24 30/23/23
f 7/8/8 22/17/17 21/22/22
f 7/8/8 21/22/22 20/21/21 6/5/5
f 6/5/5 20/21/21 16/32/32 2/14/14
f 1/1/1 2/14/14 16/32/32 15/19/19
